<svg width="456" height="456" viewBox="0 0 456 456" fill="none" xmlns="http://www.w3.org/2000/svg">
<path fill-rule="evenodd" clip-rule="evenodd" d="M400 25C400 11.1929 388.807 0 375 0H25C11.1929 0 0 11.1929 0 25V375C0 388.807 11.1929 400 25 400H226.753C249.136 433.749 287.47 456 331 456C400.036 456 456 400.036 456 331C456 287.47 433.749 249.136 400 226.753V25ZM375 213.964V50C375 36.1929 363.807 25 350 25H50C36.1929 25 25 36.1929 25 50V350C25 363.807 36.1929 375 50 375H213.964C209.822 363.988 207.19 352.238 206.319 340H85C71.1929 340 60 328.807 60 315V251.253L59.8783 251.166L60 250.996V85C60 71.1929 71.1929 60 85 60H315C328.807 60 340 71.1929 340 85V206.071L340.677 206.369C352.671 207.287 364.192 209.898 375 213.964ZM299.353 210.041L230.929 179.943L100.766 313.24C103.623 314.375 106.739 315 110 315H207.014C213.519 264.087 250.652 222.747 299.353 210.041ZM147.132 129.699L155.022 134.417L213.365 169.303L221.46 161.014L226.3 156.057L232.641 158.846L315 195.074V110C315 96.1929 303.807 85 290 85H110C96.1929 85 85 96.1929 85 110V216.194L141.769 137.166L147.132 129.699ZM198.998 184.016L86.6827 299.036C85.5961 296.233 85 293.186 85 290V250.475L152.649 156.301L198.998 184.016ZM431 331C431 386.228 386.228 431 331 431C275.772 431 231 386.228 231 331C231 275.772 275.772 231 331 231C386.228 231 431 275.772 431 331ZM254 332.25C254 326.727 258.477 322.25 264 322.25H321.25V265C321.25 259.477 325.727 255 331.25 255C336.773 255 341.25 259.477 341.25 265V322.25H398.5C404.023 322.25 408.5 326.727 408.5 332.25C408.5 337.773 404.023 342.25 398.5 342.25H341.25V399.5C341.25 405.023 336.773 409.5 331.25 409.5C325.727 409.5 321.25 405.023 321.25 399.5V342.25H264C258.477 342.25 254 337.773 254 332.25Z" fill="black"/>
</svg>
